<svg id="visual" viewBox="0 0 900 600" width="900" height="600" xmlns="http://www.w3.org/2000/svg" xmlns:xlink="http://www.w3.org/1999/xlink" version="1.1">
<rect x="0" y="0" width="900" height="600" fill="transparent"></rect>
<path id="wave-1" d="M0 252L37.5 238.2C75 224.3 150 196.7 225 200.7C300 204.7 375 240.3 450 244.7C525 249 600 222 675 199.7C750 177.3 825 159.7 862.5 150.8L900 142L900 0L862.5 0C825 0 750 0 675 0C600 0 525 0 450 0C375 0 300 0 225 0C150 0 75 0 37.5 0L0 0Z" fill="rgba(255,190,185,0.204)"></path>
<path id="wave-2" d="M0 167L37.5 168.5C75 170 150 173 225 174C300 175 375 174 450 161.2C525 148.3 600 123.7 675 123.3C750 123 825 147 862.5 159L900 171L900 0L862.5 0C825 0 750 0 675 0C600 0 525 0 450 0C375 0 300 0 225 0C150 0 75 0 37.5 0L0 0Z" fill="rgba(227,76,104,0.048)"></path>
<path id="wave-3" d="M0 83L37.5 86C75 89 150 95 225 101.2C300 107.3 375 113.7 450 114.8C525 116 600 112 675 116C750 120 825 132 862.5 138L900 144L900 0L862.5 0C825 0 750 0 675 0C600 0 525 0 450 0C375 0 300 0 225 0C150 0 75 0 37.5 0L0 0Z" fill="rgba(198,35,103,0.052)"></path>
</svg>