<svg id="visual" viewBox="0 0 900 600" width="900" height="600" xmlns="http://www.w3.org/2000/svg" xmlns:xlink="http://www.w3.org/1999/xlink" version="1.1"><path d="M0 172L25 162C50 152 100 132 150 122.2C200 112.3 250 112.7 300 123.5C350 134.3 400 155.7 450 155C500 154.3 550 131.7 600 116.3C650 101 700 93 750 85.7C800 78.3 850 71.7 875 68.3L900 65L900 0L875 0C850 0 800 0 750 0C700 0 650 0 600 0C550 0 500 0 450 0C400 0 350 0 300 0C250 0 200 0 150 0C100 0 50 0 25 0L0 0Z" fill="rgba(255,166,0,0.145)" stroke-linecap="round" stroke-linejoin="miter"></path></svg>