<?xml version="1.0" standalone="no"?>
<!DOCTYPE svg PUBLIC "-//W3C//DTD SVG 20010904//EN"
 "http://www.w3.org/TR/2001/REC-SVG-20010904/DTD/svg10.dtd">
<svg version="1.0" xmlns="http://www.w3.org/2000/svg"
 width="770.000000pt" height="770.000000pt" viewBox="0 0 770.000000 770.000000"
 preserveAspectRatio="xMidYMid meet">
<metadata>
Created by potrace 1.14, written by Peter Selinger 2001-2017
</metadata>
<g transform="translate(0.000000,770.000000) scale(0.100000,-0.100000)"
fill="#000000" stroke="none">
<path d="M3510 7660 c-102 -40 -132 -52 -140 -55 -3 -1 -18 -7 -35 -14 -16 -7
-100 -39 -185 -72 -85 -33 -164 -65 -175 -69 -11 -5 -85 -34 -165 -65 -80 -30
-160 -62 -178 -70 -18 -8 -37 -15 -42 -15 -6 0 -29 -9 -53 -20 -23 -10 -125
-51 -227 -90 -102 -39 -196 -76 -210 -82 -14 -5 -67 -27 -119 -47 -53 -20 -95
-43 -97 -51 -2 -8 -5 -26 -8 -40 -3 -14 -8 -34 -10 -46 -2 -11 -16 -70 -31
-130 -15 -60 -29 -120 -31 -133 -3 -12 -12 -53 -20 -90 -9 -36 -17 -73 -19
-81 -2 -8 -22 -96 -45 -195 -23 -99 -49 -209 -57 -245 -8 -36 -17 -74 -19 -85
-3 -11 -7 -29 -9 -40 -7 -29 -12 -52 -29 -121 -8 -34 -17 -72 -20 -85 -8 -42
-58 -259 -75 -329 -14 -55 -23 -92 -37 -160 -6 -26 -7 -31 -17 -70 -11 -44
-46 -194 -51 -220 -9 -47 -35 -152 -38 -156 -4 -4 -86 120 -151 228 l-34 57
-88 -62 c-48 -34 -109 -77 -134 -95 -25 -18 -56 -40 -68 -49 -13 -8 -21 -19
-18 -23 2 -4 7 -27 9 -51 3 -24 7 -55 10 -69 3 -14 10 -59 15 -100 6 -41 12
-84 15 -95 2 -11 7 -42 10 -70 15 -107 17 -121 23 -150 2 -16 6 -37 8 -45 2
-8 4 -23 4 -32 1 -14 6 -12 29 10 32 30 59 53 147 127 33 28 77 67 99 88 43
40 60 47 52 20 -7 -21 -108 -434 -121 -493 -2 -8 -20 -82 -40 -165 -20 -82
-38 -157 -40 -165 -2 -8 -13 -53 -25 -100 -11 -47 -23 -96 -26 -110 -3 -14
-12 -52 -21 -85 -8 -33 -17 -69 -19 -80 -2 -11 -26 -112 -54 -225 -28 -113
-54 -216 -56 -230 -3 -14 -9 -38 -14 -55 -5 -16 -21 -79 -35 -140 -14 -60 -27
-117 -29 -125 -22 -87 -48 -199 -51 -213 -2 -10 -7 -27 -10 -37 -3 -10 -8 -27
-10 -37 -2 -10 -10 -47 -19 -83 -12 -48 -16 -119 -16 -269 l0 -204 50 -93 c28
-52 61 -113 74 -136 38 -69 81 -148 118 -218 20 -36 64 -117 98 -180 34 -63
76 -140 92 -170 17 -30 34 -60 39 -66 5 -6 7 -13 4 -16 -3 -3 1 -11 10 -18 8
-7 15 -17 15 -22 0 -5 13 -29 29 -52 31 -45 75 -67 181 -90 22 -5 218 -59 230
-63 8 -4 20 -7 25 -8 6 -2 53 -15 105 -29 52 -15 102 -29 111 -31 8 -2 74 -20
145 -40 71 -20 136 -38 144 -40 25 -6 115 -31 365 -100 132 -36 249 -68 260
-70 11 -3 43 -11 70 -19 66 -19 196 -56 215 -60 16 -4 77 -21 200 -55 41 -11
116 -33 165 -48 87 -26 99 -27 381 -30 272 -4 296 -2 365 17 41 12 81 23 89
25 27 8 164 46 200 56 19 6 42 12 50 13 8 2 40 10 71 20 31 9 65 19 75 21 11
2 75 20 144 40 69 19 134 37 145 40 11 2 54 14 95 26 110 31 184 51 195 53 6
1 35 10 65 19 30 8 89 25 130 36 41 11 109 29 150 41 41 12 82 23 90 26 8 2
49 13 90 24 113 32 253 70 273 75 10 2 27 7 37 10 10 3 27 8 37 10 67 16 243
69 268 80 26 12 65 47 65 59 0 5 164 311 180 336 5 8 20 35 33 60 13 25 38 70
54 100 46 83 115 211 135 250 10 19 35 64 55 100 19 36 42 76 49 90 11 19 14
75 14 230 l0 206 -40 164 c-22 91 -43 176 -47 190 -3 14 -7 30 -8 35 -11 50
-50 210 -61 250 -7 28 -15 61 -18 75 -2 14 -23 98 -45 187 -23 89 -43 170 -44
180 -2 10 -7 29 -10 43 -4 14 -21 84 -38 155 -38 160 -33 140 -64 265 -32 127
-34 134 -40 163 -2 12 -13 58 -24 102 -11 44 -33 136 -50 205 -16 69 -44 181
-61 250 -40 162 -40 160 -32 160 4 0 21 -13 37 -28 125 -116 280 -240 286
-229 4 6 10 37 13 67 3 30 7 64 10 75 4 22 19 120 22 148 1 9 2 18 3 20 1 1 4
16 6 32 1 17 6 50 10 75 9 54 12 78 20 150 l7 55 -145 103 c-80 57 -149 104
-153 105 -7 2 -70 -92 -145 -216 -22 -38 -42 -67 -44 -65 -4 4 -46 166 -49
188 -1 8 -5 26 -9 40 -4 14 -9 37 -12 53 -12 67 -16 83 -21 97 -4 8 -8 24 -10
35 -2 11 -17 79 -34 150 -18 72 -33 139 -35 150 -2 11 -9 38 -14 60 -5 22 -12
51 -15 65 -3 14 -10 46 -16 71 -6 26 -13 53 -14 60 -2 8 -6 25 -9 39 -22 90
-49 208 -52 225 -2 11 -8 38 -14 60 -5 22 -12 54 -16 72 -3 18 -10 45 -16 60
-6 15 -10 29 -9 31 1 1 -1 15 -4 30 -4 15 -8 36 -10 47 -2 11 -16 72 -31 135
-15 63 -32 133 -36 155 -15 66 -18 80 -45 192 -14 60 -28 119 -30 133 -17 93
-20 97 -92 124 -37 14 -80 31 -97 37 -16 7 -32 13 -35 14 -6 2 -50 19 -95 38
-16 6 -32 12 -35 13 -3 0 -18 6 -35 13 -16 7 -118 46 -225 87 -107 42 -204 79
-215 84 -11 5 -101 40 -200 79 -99 38 -290 113 -425 166 -135 53 -250 98 -257
99 -7 1 -16 5 -19 9 -4 4 -118 7 -253 6 l-246 -1 -95 -38z m195 -475 l0 -260
-80 -70 c-44 -38 -85 -74 -91 -80 -6 -5 -42 -37 -79 -70 -38 -33 -84 -73 -102
-90 -46 -41 -132 -118 -147 -130 -6 -5 -34 -30 -62 -55 -27 -25 -65 -59 -84
-75 -109 -96 -216 -191 -226 -200 -6 -6 -39 -35 -74 -65 -35 -30 -75 -66 -89
-78 -14 -13 -48 -43 -74 -65 -27 -23 -63 -55 -80 -72 -30 -28 -151 -135 -201
-178 -12 -10 -30 -26 -41 -35 -11 -10 -45 -40 -75 -67 -31 -28 -87 -77 -124
-110 -38 -33 -76 -67 -85 -75 -9 -9 -54 -49 -101 -90 -47 -41 -101 -89 -120
-107 -19 -18 -35 -31 -37 -30 -1 2 20 99 48 217 27 118 51 224 54 235 2 11 6
29 9 40 2 11 10 43 16 70 6 28 14 61 16 75 3 14 9 39 14 55 5 17 14 57 21 90
7 33 14 65 15 70 9 34 21 85 28 120 6 30 25 111 46 200 20 84 80 339 85 365
15 70 25 104 32 111 6 6 299 123 428 171 17 6 44 17 60 24 17 7 59 24 95 38
692 268 948 368 960 376 8 5 22 8 30 7 13 -2 15 -39 15 -262z m532 176 c125
-49 299 -117 386 -151 87 -33 171 -66 185 -72 15 -6 32 -12 37 -14 6 -1 84
-32 175 -68 318 -126 551 -216 560 -216 4 0 10 -10 13 -22 4 -23 45 -196 53
-230 2 -10 6 -28 10 -40 3 -13 7 -34 10 -48 5 -26 16 -78 20 -95 2 -5 5 -19 7
-30 3 -11 13 -49 22 -85 9 -36 18 -74 20 -85 1 -11 8 -42 15 -70 6 -27 14 -61
16 -74 3 -14 7 -28 9 -32 3 -4 7 -24 10 -45 3 -22 8 -46 11 -54 3 -8 8 -26 11
-40 2 -14 15 -70 28 -125 33 -137 47 -196 51 -220 2 -11 10 -47 19 -80 8 -33
24 -100 34 -150 11 -49 23 -98 26 -107 11 -27 -6 -21 -50 18 -100 90 -190 170
-275 244 -34 30 -68 60 -74 66 -10 9 -94 84 -280 248 -89 78 -142 125 -175
155 -14 13 -55 49 -91 80 -35 31 -89 79 -119 106 -69 62 -66 60 -136 120 -32
28 -66 57 -74 65 -9 9 -54 49 -101 90 -47 41 -90 80 -96 85 -11 10 -109 96
-150 132 -46 39 -158 139 -178 158 -11 11 -55 50 -96 86 l-75 65 1 254 c2 272
2 270 9 270 2 0 107 -40 232 -89z m-532 -1956 c0 -1238 2 -1189 -43 -1166 -9
5 -55 24 -102 41 -47 18 -94 36 -105 40 -11 5 -81 32 -155 61 -159 60 -314
120 -460 177 -288 112 -553 212 -559 212 -4 0 -76 -38 -159 -85 -84 -47 -156
-85 -162 -85 -5 0 -10 -3 -10 -8 0 -4 -14 -13 -30 -20 -17 -8 -67 -35 -113
-61 -215 -124 -202 -121 -227 -50 -11 31 -10 47 6 110 22 88 19 76 28 121 10
47 9 46 211 223 38 33 114 101 170 150 55 50 132 117 169 150 38 33 74 65 80
70 6 6 52 47 101 90 50 44 95 84 101 90 6 5 26 23 45 39 19 16 54 48 79 70 25
23 79 70 120 106 41 36 86 77 102 93 15 15 30 27 34 27 4 0 12 6 18 14 9 12
161 146 220 196 10 8 30 26 45 40 14 14 69 63 121 109 121 107 216 190 244
216 13 11 56 49 97 85 68 60 134 119 134 120 0 0 0 -529 0 -1175z m351 1120
c11 -11 49 -45 84 -75 112 -97 216 -189 260 -229 30 -27 49 -44 176 -156 124
-110 155 -137 199 -177 22 -20 83 -74 135 -119 52 -46 103 -92 113 -103 9 -10
17 -16 17 -13 0 3 13 -7 28 -21 38 -37 102 -94 198 -178 74 -64 118 -103 180
-159 12 -11 53 -47 90 -80 38 -33 75 -67 84 -75 9 -8 47 -42 85 -75 39 -33 86
-74 105 -92 19 -17 44 -40 56 -50 163 -141 214 -190 215 -208 1 -8 2 -18 3
-22 46 -186 48 -203 36 -235 -27 -66 -18 -67 -150 11 -19 11 -42 24 -50 28 -8
3 -50 26 -93 50 -42 24 -96 54 -120 67 -108 60 -157 87 -215 120 -68 38 -82
42 -110 26 -9 -5 -96 -39 -192 -75 -96 -37 -184 -70 -195 -75 -11 -6 -121 -48
-245 -95 -124 -48 -252 -97 -285 -110 -118 -46 -230 -89 -235 -90 -3 -1 -16
-6 -30 -12 -91 -38 -191 -74 -197 -70 -6 4 -10 2318 -4 2336 1 4 26 -15 57
-44z m1469 -2108 c50 -28 119 -66 156 -86 226 -124 299 -167 299 -175 0 -9
-90 -213 -196 -444 -19 -41 -34 -75 -34 -77 0 -2 -16 -38 -36 -82 -20 -43 -44
-96 -54 -118 -10 -22 -43 -97 -74 -166 l-57 -125 -52 -24 c-29 -12 -54 -24
-57 -25 -6 -2 -96 -44 -264 -124 -70 -33 -130 -61 -132 -61 -2 0 -36 -16 -75
-35 -40 -19 -76 -35 -81 -35 -4 0 -8 69 -8 154 0 150 -1 154 -25 180 -38 41
-52 67 -59 109 -7 40 -28 71 -61 90 -14 8 -128 14 -370 17 l-350 5 0 274 0
275 158 62 c87 34 159 62 160 62 1 0 13 5 27 10 14 5 93 35 175 67 83 31 159
60 170 65 11 5 52 21 90 35 39 14 79 30 90 35 11 5 128 51 260 101 132 50 247
95 255 99 16 9 13 10 145 -63z m-3088 17 c65 -25 127 -49 138 -54 11 -5 58
-22 105 -40 47 -17 97 -37 112 -46 15 -8 30 -15 33 -15 6 0 27 -6 53 -16 9 -3
19 -7 22 -7 7 -2 67 -25 105 -41 17 -7 156 -61 310 -119 311 -119 306 -117
355 -138 l35 -15 0 -274 0 -274 -345 -5 c-190 -3 -346 -7 -348 -8 -29 -21 -63
-70 -68 -99 -5 -25 -23 -54 -53 -86 -52 -55 -53 -58 -50 -204 0 -10 0 -49 -1
-86 -1 -81 16 -83 -187 14 -80 38 -146 69 -148 69 -1 0 -63 29 -136 63 -74 35
-151 72 -171 82 -21 9 -38 21 -38 25 0 5 -13 37 -29 72 -16 35 -39 86 -51 113
-93 210 -99 222 -146 323 -23 50 -40 92 -37 92 3 0 -1 8 -10 18 -8 9 -15 21
-15 25 0 4 -35 84 -77 178 -45 100 -74 176 -71 186 4 9 9 13 13 10 3 -4 18 2
32 12 14 9 78 46 141 81 63 35 131 72 150 84 19 11 37 21 40 21 3 0 37 19 75
41 105 62 109 63 127 64 9 0 70 -20 135 -46z m-925 -459 c48 -108 78 -174 102
-227 13 -29 33 -73 44 -98 33 -75 108 -241 136 -302 14 -31 26 -59 26 -61 0
-3 19 -45 42 -94 23 -48 43 -90 43 -93 1 -3 16 -37 34 -76 l32 -71 122 -57
c130 -61 130 -60 337 -159 74 -35 167 -78 207 -96 l71 -34 -18 -41 c-17 -41
-65 -146 -100 -221 -22 -47 -63 -138 -65 -145 -1 -3 -11 -25 -22 -50 -12 -25
-60 -133 -108 -240 -93 -210 -92 -209 -230 -321 -74 -59 -303 -248 -350 -288
-11 -9 -58 -48 -105 -86 -47 -38 -138 -113 -203 -167 l-119 -98 -25 48 c-41
78 -174 323 -210 387 -19 33 -41 76 -51 95 -9 19 -19 37 -22 40 -3 3 -15 25
-28 50 -13 25 -48 92 -79 148 l-55 104 17 66 c9 37 18 74 20 82 2 8 28 117 59
243 31 125 58 241 61 259 3 17 8 34 10 38 2 3 6 17 9 31 7 32 9 41 46 194 18
72 33 135 35 140 1 6 5 21 8 35 14 52 99 406 103 427 2 12 9 34 14 48 5 14 7
25 5 25 -2 0 0 12 6 26 5 15 12 43 15 63 3 20 7 43 10 51 6 16 50 191 58 232
3 13 9 38 15 56 5 17 8 32 6 32 -3 0 0 11 5 25 10 26 12 35 31 123 13 60 16
58 61 -43z m4733 63 c22 -95 103 -434 110 -458 3 -13 16 -67 19 -85 2 -11 16
-67 31 -125 15 -58 29 -113 31 -123 2 -10 5 -26 8 -35 3 -9 7 -28 10 -42 3
-14 17 -72 31 -130 15 -58 28 -114 31 -125 3 -15 99 -409 118 -485 3 -8 16
-65 30 -127 14 -61 28 -117 31 -125 2 -7 6 -24 9 -38 2 -14 14 -63 26 -110 12
-47 24 -93 26 -103 2 -9 6 -27 10 -40 3 -12 7 -32 10 -45 4 -19 -55 -154 -75
-172 -3 -3 -16 -25 -28 -50 -21 -43 -40 -77 -142 -265 -89 -162 -143 -261
-195 -357 -11 -21 -24 -38 -29 -38 -8 0 -103 74 -117 91 -3 3 -54 46 -115 95
-60 49 -119 96 -130 106 -20 17 -183 150 -374 308 -57 47 -113 93 -124 102
-11 10 -23 18 -27 18 -8 0 -33 49 -110 220 -29 63 -63 140 -77 170 -14 30 -52
114 -84 185 -32 72 -80 180 -107 240 l-50 110 101 48 c101 49 192 91 317 150
232 107 330 157 330 166 0 10 12 37 89 204 23 49 41 91 41 92 0 2 18 43 40 90
22 47 40 88 40 89 0 2 17 41 39 87 21 46 39 86 39 89 1 3 22 50 47 105 113
243 145 316 145 326 0 19 20 8 25 -13z m-1845 -912 c0 -4 -152 -105 -175 -116
-22 -11 -70 -45 -76 -54 -4 -5 12 -41 35 -80 22 -39 50 -87 60 -108 34 -63 51
-80 87 -84 19 -2 54 -5 79 -8 123 -12 186 -19 200 -21 8 -2 29 -4 46 -4 30 -1
34 -6 72 -93 23 -51 58 -129 78 -173 21 -44 39 -84 40 -90 2 -5 30 -69 63
-142 34 -72 61 -136 61 -142 0 -6 5 -11 10 -11 6 0 10 -6 10 -13 0 -7 27 -72
60 -145 33 -72 60 -135 60 -140 0 -7 -27 -18 -95 -38 -5 -2 -35 -12 -65 -23
-30 -11 -115 -41 -188 -66 l-134 -45 -787 0 -787 0 -130 46 c-188 66 -327 114
-331 114 -12 0 -7 14 112 275 40 89 50 113 59 135 3 8 10 22 15 30 5 8 60 129
122 268 l112 252 36 1 c20 0 43 2 52 4 9 1 49 6 90 9 41 4 92 8 114 11 22 3
63 7 90 10 28 4 53 9 56 13 3 4 21 45 40 92 19 47 41 101 50 120 9 19 15 39
12 45 -4 11 -210 148 -230 153 -7 2 -13 8 -13 13 0 5 217 9 545 9 300 0 545
-2 545 -4z m736 -1704 c-2 -4 -7 -30 -10 -57 -4 -28 -8 -61 -10 -75 -3 -14 -7
-43 -11 -65 -3 -22 -7 -53 -10 -70 -3 -16 -7 -48 -10 -70 -3 -22 -13 -89 -21
-150 -9 -60 -17 -119 -18 -130 -4 -23 -16 -111 -21 -140 -2 -11 -6 -45 -10
-76 -4 -31 -11 -62 -14 -68 -7 -11 -72 -31 -301 -92 -41 -11 -82 -22 -90 -24
-24 -5 -243 -67 -260 -73 -8 -3 -19 -6 -25 -7 -5 -2 -30 -8 -55 -16 -25 -7
-49 -13 -55 -15 -5 -1 -35 -9 -66 -18 -31 -9 -65 -18 -75 -21 -11 -2 -64 -17
-119 -32 -93 -27 -104 -28 -145 -15 -87 25 -295 83 -320 88 -14 3 -54 14 -89
25 -34 10 -73 21 -85 23 -11 3 -156 42 -321 88 l-300 84 -7 49 c-5 28 -8 57
-9 65 0 8 -5 40 -10 70 -5 30 -11 78 -14 105 -3 28 -8 64 -11 80 -3 17 -7 44
-9 60 -4 28 -27 193 -40 280 -3 22 -7 49 -10 60 -2 11 -7 46 -10 78 -7 61 -5
64 42 46 24 -9 108 -40 348 -125 33 -11 180 -14 873 -14 l833 0 167 56 c92 31
176 59 187 64 11 5 40 15 65 23 25 8 46 15 48 16 2 0 1 -3 -2 -7z m-2821 -87
c2 -14 6 -42 10 -62 3 -21 8 -54 10 -73 2 -19 7 -51 10 -70 3 -19 7 -48 9 -65
3 -16 7 -43 10 -60 3 -16 8 -50 10 -75 3 -25 7 -54 10 -65 2 -11 7 -47 11 -80
3 -32 8 -62 10 -65 6 -10 15 -130 10 -130 -3 0 -21 6 -40 14 -18 8 -36 12 -39
8 -3 -3 -16 0 -29 6 -20 10 -206 63 -287 82 -19 4 -73 19 -120 32 -47 14 -123
35 -170 48 -47 13 -88 25 -93 27 -4 3 12 20 35 40 24 19 61 50 83 68 37 30
162 133 210 173 11 10 70 57 130 107 122 100 137 112 180 148 34 28 37 28 40
-8z m3115 5 c3 -3 30 -25 60 -50 66 -54 99 -82 114 -95 6 -5 34 -28 61 -50 28
-21 52 -42 55 -45 3 -3 41 -35 85 -70 44 -36 85 -69 91 -75 13 -11 24 -20 99
-80 77 -61 80 -69 33 -80 -47 -11 -34 -7 -258 -70 -112 -31 -215 -59 -228 -61
-14 -3 -40 -11 -58 -19 -19 -8 -34 -12 -34 -10 0 2 -35 -7 -77 -21 -43 -13
-82 -24 -86 -24 -7 0 -4 50 9 128 3 17 7 49 10 69 2 20 6 48 9 62 2 14 7 49
10 76 3 28 8 61 10 75 8 43 14 83 21 135 12 93 26 193 30 208 1 4 2 12 3 18 1
10 20 0 41 -21z"/>
<path d="M5289 4036 c-3 -3 -31 -7 -64 -10 -33 -3 -69 -7 -80 -9 -11 -3 -42
-8 -70 -11 -27 -4 -63 -10 -80 -12 -16 -3 -43 -7 -60 -8 -16 -2 -66 -9 -110
-16 -44 -7 -89 -14 -100 -15 -11 -1 -24 -3 -30 -4 -10 -1 13 -24 301 -297 253
-241 245 -235 243 -186 0 15 1 36 4 47 2 11 8 47 13 80 4 33 8 62 9 65 0 3 5
31 9 64 4 32 9 68 11 80 2 11 6 39 10 61 3 22 8 54 10 70 13 78 13 105 1 105
-7 0 -15 -2 -17 -4z"/>
<path d="M2385 4031 c-3 -6 -4 -14 -2 -18 3 -5 8 -37 11 -72 4 -36 9 -67 11
-71 2 -3 7 -35 10 -70 4 -36 9 -68 11 -71 2 -4 6 -31 9 -61 3 -29 7 -64 9 -78
3 -14 7 -43 10 -65 15 -106 7 -105 104 -11 125 120 191 183 329 314 68 64 121
117 119 119 -4 5 -27 9 -96 18 -30 4 -63 9 -73 11 -22 4 -244 36 -272 39 -30
3 -116 16 -147 21 -14 3 -29 0 -33 -5z"/>
</g>
</svg>
