<?xml version="1.0" standalone="no"?>
<!DOCTYPE svg PUBLIC "-//W3C//DTD SVG 20010904//EN"
 "http://www.w3.org/TR/2001/REC-SVG-20010904/DTD/svg10.dtd">
<svg version="1.0" xmlns="http://www.w3.org/2000/svg"
 width="742.000000pt" height="742.000000pt" viewBox="0 0 742.000000 742.000000"
 preserveAspectRatio="xMidYMid meet">
<metadata>
Created by potrace 1.14, written by Peter Selinger 2001-2017
</metadata>
<g transform="translate(0.000000,742.000000) scale(0.100000,-0.100000)"
fill="#000000" stroke="none">
<path d="M3365 7320 c-137 -54 -261 -102 -275 -108 -42 -18 -259 -102 -264
-102 -2 0 -21 -8 -42 -17 -22 -9 -43 -18 -49 -19 -5 -2 -95 -36 -200 -77 -104
-41 -287 -111 -405 -157 -118 -46 -219 -86 -223 -90 -4 -4 -10 -18 -12 -31 -3
-13 -7 -34 -10 -46 -7 -32 -14 -63 -21 -98 -3 -16 -14 -66 -24 -110 -21 -88
-108 -485 -115 -525 -6 -31 -16 -79 -54 -245 -17 -71 -32 -141 -35 -155 -7
-39 -24 -115 -52 -230 -14 -58 -27 -112 -29 -120 -2 -8 -8 -33 -14 -55 -5 -22
-13 -53 -16 -70 -3 -16 -13 -63 -23 -103 -11 -40 -15 -75 -11 -77 4 -3 20 7
36 22 15 16 62 57 103 93 95 83 164 144 170 150 3 3 34 30 69 60 36 30 76 66
90 79 15 13 48 42 74 65 27 22 61 52 76 66 15 14 56 50 91 80 35 30 76 66 91
80 15 14 49 44 76 67 26 22 62 54 80 70 18 15 51 44 73 63 23 19 54 46 68 60
15 14 61 54 102 90 41 36 80 70 86 75 6 6 35 30 64 55 29 25 65 56 79 70 14
14 58 52 96 84 39 33 75 64 80 70 6 6 44 40 85 75 41 36 80 70 85 75 6 6 39
36 75 66 36 30 77 66 91 80 15 14 48 44 75 67 27 22 66 56 87 75 l38 33 0 275
c0 151 -1 301 -1 333 0 31 -3 56 -7 56 -5 -1 -120 -45 -258 -99z"/>
<path d="M3790 7333 c-1 -49 -1 -198 0 -333 l0 -245 39 -35 c21 -19 62 -55 90
-80 29 -25 62 -54 75 -65 76 -68 162 -143 183 -160 14 -11 40 -33 57 -50 18
-16 56 -50 85 -75 29 -25 65 -56 80 -70 56 -51 164 -146 189 -165 14 -11 34
-29 46 -40 12 -11 77 -69 146 -129 69 -60 127 -112 130 -115 3 -4 21 -19 40
-35 19 -15 53 -45 75 -65 22 -20 71 -63 110 -96 38 -33 75 -64 81 -70 6 -5 41
-37 79 -70 37 -33 73 -65 79 -70 6 -6 43 -37 81 -70 39 -33 77 -67 85 -75 8
-8 49 -44 90 -80 41 -36 80 -69 86 -75 6 -5 37 -32 69 -60 32 -27 76 -66 99
-87 22 -20 44 -34 48 -32 3 2 2 20 -4 40 -5 20 -11 45 -13 57 -3 11 -13 56
-24 101 -43 174 -93 385 -112 471 -11 50 -29 133 -40 185 -12 52 -25 113 -29
135 -5 22 -11 51 -14 65 -3 14 -8 34 -10 45 -2 11 -14 65 -26 120 -12 55 -24
111 -27 125 -2 14 -13 61 -23 105 -24 102 -43 191 -56 255 -3 14 -9 41 -14 60
-5 19 -11 48 -14 64 -7 41 21 26 -251 131 -66 25 -129 50 -140 55 -11 5 -108
42 -215 84 -107 41 -307 118 -445 172 -278 108 -294 114 -450 173 -60 23 -119
46 -130 51 -28 13 -97 40 -101 40 -2 0 -4 -39 -4 -87z"/>
<path d="M3594 6564 c-16 -14 -51 -44 -78 -67 -26 -23 -65 -58 -85 -77 -21
-19 -71 -64 -112 -100 -41 -35 -76 -67 -79 -70 -3 -3 -48 -43 -100 -89 -52
-46 -128 -114 -169 -150 -102 -91 -109 -97 -164 -145 -27 -22 -63 -54 -81 -71
-17 -16 -60 -55 -95 -85 -35 -30 -75 -66 -90 -80 -14 -14 -82 -75 -151 -135
-113 -99 -156 -138 -225 -200 -13 -11 -51 -45 -86 -75 -35 -30 -70 -62 -79
-70 -8 -8 -53 -48 -100 -89 -47 -41 -92 -81 -101 -90 -9 -9 -42 -38 -74 -66
-33 -27 -69 -59 -81 -70 -12 -11 -50 -45 -85 -75 -139 -121 -127 -102 -168
-266 l-37 -149 39 -80 c21 -44 41 -82 43 -84 2 -2 14 3 26 11 13 8 25 15 28
15 3 0 23 11 45 25 22 14 81 47 130 73 87 47 220 120 297 163 188 106 190 107
258 72 22 -11 40 -18 40 -16 0 3 21 -4 48 -15 26 -11 56 -24 67 -29 11 -4 47
-18 80 -30 33 -12 69 -26 80 -31 11 -5 56 -22 100 -38 44 -16 157 -60 250 -96
94 -36 175 -68 180 -69 6 -2 24 -8 40 -15 17 -6 44 -16 60 -22 17 -6 44 -17
60 -24 17 -7 98 -38 180 -69 83 -31 165 -64 184 -72 18 -8 35 -13 38 -11 5 6
5 2578 0 2583 -2 2 -17 -7 -33 -22z"/>
<path d="M3790 6558 c0 -40 0 -2321 0 -2465 l0 -102 95 39 c52 21 95 37 95 34
0 -2 12 4 27 13 15 10 27 17 28 15 0 -4 11 0 150 54 61 23 189 72 285 109 96
36 213 81 260 100 47 18 141 54 210 80 69 25 134 50 145 55 39 18 180 70 189
70 8 0 78 -37 281 -150 17 -9 71 -39 120 -66 50 -27 104 -57 120 -66 17 -9 55
-30 85 -45 30 -15 57 -31 60 -34 3 -4 15 -9 27 -13 19 -6 26 2 61 74 l38 80
-36 145 c-20 80 -35 145 -33 145 5 0 -39 40 -187 170 -35 30 -165 146 -192
170 -15 14 -34 30 -41 35 -6 6 -37 33 -68 60 -30 28 -86 77 -124 110 -37 33
-76 67 -85 75 -30 26 -163 144 -180 160 -9 8 -52 46 -96 85 -73 64 -92 81
-165 147 -14 13 -58 52 -98 88 -41 36 -79 70 -85 75 -6 6 -44 39 -85 75 -41
36 -82 72 -91 80 -48 44 -217 195 -288 256 -19 16 -56 50 -83 75 -27 26 -49
45 -49 42 0 -2 -10 6 -23 19 -22 22 -138 126 -189 170 -13 11 -35 30 -50 44
l-28 24 0 -32z"/>
<path d="M2075 4386 c-44 -24 -108 -59 -142 -79 -34 -19 -71 -38 -82 -42 -12
-3 -21 -11 -21 -16 0 -5 -4 -9 -9 -9 -5 0 -51 -24 -103 -53 -51 -28 -114 -63
-141 -77 -73 -39 -93 -56 -81 -72 6 -7 20 -35 32 -63 11 -27 35 -80 51 -117
17 -38 31 -70 32 -73 0 -2 16 -36 35 -75 19 -39 34 -73 34 -75 0 -3 15 -37 34
-77 18 -40 64 -140 101 -223 37 -82 80 -179 96 -214 17 -35 39 -86 51 -112 11
-27 24 -49 28 -49 4 0 61 -25 126 -56 66 -31 146 -69 179 -84 33 -15 114 -54
180 -85 66 -32 144 -68 173 -81 l52 -23 1 22 c0 12 0 99 0 192 l0 170 71 85
c39 47 78 88 87 91 9 3 184 5 389 4 206 0 376 3 378 7 9 13 5 651 -3 658 -5 4
-46 22 -93 40 -123 47 -362 139 -415 161 -16 7 -35 13 -40 14 -6 2 -55 21
-110 43 -55 22 -138 54 -185 72 -47 18 -96 37 -110 43 -14 6 -28 11 -32 12 -5
2 -10 4 -13 5 -3 1 -8 3 -12 5 -5 1 -21 7 -38 14 -16 6 -95 37 -175 67 -80 31
-166 64 -192 75 -26 10 -48 19 -50 19 -2 0 -39 -20 -83 -44z m270 -490 c22 -4
55 -9 74 -12 19 -3 53 -8 75 -10 23 -3 52 -7 66 -10 14 -2 43 -7 65 -10 22 -3
54 -7 70 -10 17 -2 44 -6 61 -8 17 -2 50 -7 73 -11 l42 -7 -70 -66 c-38 -37
-140 -134 -226 -217 -87 -82 -175 -167 -196 -187 -39 -39 -63 -49 -53 -24 3 8
1 31 -5 52 -5 22 -12 64 -15 94 -4 30 -8 66 -10 80 -5 29 -15 90 -22 140 -2
19 -6 44 -9 55 -2 11 -7 43 -10 70 -4 28 -8 59 -10 71 -3 22 8 23 100 10z"/>
<path d="M5135 4381 c-145 -58 -128 -51 -305 -118 -80 -30 -154 -59 -165 -63
-11 -5 -60 -25 -110 -44 -107 -41 -321 -124 -495 -192 -69 -26 -127 -49 -130
-49 -10 -1 -125 -48 -133 -55 -6 -5 -10 -407 -7 -640 l0 -26 378 1 c207 1 384
-1 392 -3 8 -2 47 -42 85 -88 l70 -84 1 -191 c1 -104 3 -192 6 -194 2 -2 50
18 107 45 56 28 104 50 106 50 1 0 67 31 146 69 79 37 192 91 252 119 l107 51
29 63 c15 35 37 83 49 108 11 25 41 92 67 150 26 58 58 130 72 160 30 66 27
61 148 330 53 118 103 228 111 244 18 37 16 39 -91 96 -44 24 -109 60 -145 80
-36 21 -92 52 -125 70 -33 18 -111 61 -172 96 -62 35 -116 64 -120 63 -5 0
-62 -22 -128 -48z m39 -506 c-2 -16 -7 -57 -13 -90 -6 -33 -13 -80 -16 -104
-3 -23 -7 -55 -9 -70 -3 -14 -7 -44 -11 -66 -3 -23 -7 -50 -9 -60 -4 -20 -16
-102 -21 -143 -4 -36 -11 -36 -48 0 -19 18 -107 103 -196 188 -90 85 -194 185
-232 222 l-70 66 43 8 c24 4 59 8 78 10 19 1 35 3 35 4 0 3 35 8 85 14 64 7
323 46 326 49 1 1 15 2 32 2 26 1 28 -2 26 -30z"/>
<path d="M1285 4047 c-10 -45 -19 -86 -21 -92 -1 -5 -10 -39 -19 -75 -9 -36
-19 -76 -21 -90 -3 -14 -7 -32 -10 -40 -3 -8 -8 -26 -10 -40 -3 -14 -12 -52
-21 -85 -8 -33 -16 -67 -18 -75 -3 -14 -24 -101 -122 -500 -19 -80 -36 -152
-38 -160 -2 -8 -13 -53 -25 -100 -12 -47 -24 -96 -26 -110 -6 -31 -31 -134
-44 -180 -6 -19 -28 -111 -51 -205 -22 -93 -65 -271 -95 -394 l-55 -223 27
-52 c14 -28 39 -73 54 -101 39 -70 152 -279 190 -350 18 -33 51 -94 73 -135
22 -41 58 -106 79 -145 21 -38 50 -94 65 -122 15 -29 31 -53 35 -53 4 0 36 24
70 53 35 29 113 93 173 142 61 49 119 97 130 107 11 9 65 53 120 98 55 45 120
99 145 120 25 21 75 62 111 92 201 162 239 195 245 213 3 11 19 46 35 78 15
31 25 57 22 57 -3 0 -1 6 5 13 5 6 56 116 112 242 95 214 115 257 175 390 57
127 75 168 75 177 0 5 -19 17 -42 27 -24 10 -77 34 -118 54 -41 19 -109 50
-150 70 -175 80 -237 109 -275 127 -22 10 -75 35 -117 54 -43 20 -78 42 -78
49 0 7 -11 35 -24 63 -13 27 -31 65 -39 84 -84 191 -143 321 -219 490 -30 65
-50 110 -53 120 -1 3 -11 27 -23 53 -12 27 -22 53 -22 58 0 5 -4 9 -10 9 -5 0
-9 3 -8 8 2 9 -18 54 -133 309 -10 23 -23 44 -27 47 -5 3 -17 -32 -27 -77z"/>
<path d="M6081 4086 c-11 -27 -21 -50 -21 -52 0 -2 -20 -47 -45 -100 -25 -52
-45 -97 -45 -99 0 -2 -13 -33 -30 -69 -16 -36 -43 -96 -60 -132 -16 -36 -30
-67 -30 -69 0 -4 -25 -59 -90 -200 -18 -38 -34 -74 -35 -80 -2 -5 -19 -44 -38
-85 -20 -41 -60 -131 -90 -200 -62 -139 -47 -125 -217 -203 -41 -19 -113 -53
-160 -75 -94 -45 -367 -170 -417 -193 -18 -7 -33 -18 -33 -23 0 -5 28 -70 61
-145 77 -172 83 -184 81 -193 -1 -5 2 -8 8 -8 5 0 10 -4 10 -10 0 -5 12 -35
27 -67 14 -32 32 -71 38 -88 61 -149 210 -464 228 -480 13 -11 43 -36 67 -57
25 -20 88 -71 140 -114 52 -43 100 -82 105 -86 6 -5 22 -19 37 -33 15 -13 45
-36 65 -52 21 -15 40 -31 43 -34 3 -3 45 -38 93 -78 49 -39 95 -77 103 -84 7
-6 19 -17 26 -22 7 -6 51 -42 98 -80 47 -39 93 -77 103 -85 11 -8 33 -27 50
-42 23 -20 35 -24 44 -16 7 6 13 14 13 18 0 4 21 45 46 91 26 46 62 113 82
149 19 36 47 88 62 115 15 28 47 86 70 130 43 80 83 154 125 230 12 22 43 80
69 128 l48 88 -61 247 c-34 136 -63 256 -66 267 -2 11 -9 40 -16 65 -13 54
-18 74 -23 99 -3 11 -23 93 -45 183 -62 250 -103 421 -106 438 -1 8 -5 22 -8
30 -5 15 -43 175 -51 215 -3 11 -25 103 -51 205 -25 102 -48 192 -50 200 -11
49 -77 324 -90 373 -8 32 -15 66 -15 76 0 9 -6 26 -14 36 -12 17 -15 15 -35
-29z"/>
<path d="M3085 3060 c-2 -3 21 -21 51 -40 30 -19 60 -40 67 -45 7 -6 57 -42
112 -79 55 -38 101 -69 102 -70 3 -2 -102 -255 -109 -261 -3 -4 -28 -8 -55
-10 -26 -2 -73 -6 -103 -10 -107 -12 -126 -14 -205 -21 -69 -5 -103 -9 -138
-13 -4 -1 -20 -27 -34 -58 -14 -32 -45 -100 -69 -151 -24 -52 -44 -95 -44 -97
0 -3 -38 -86 -101 -223 -16 -34 -47 -102 -68 -150 -21 -48 -53 -118 -71 -157
-55 -121 -60 -133 -60 -139 0 -7 36 -26 58 -31 9 -2 35 -10 57 -18 22 -9 123
-46 225 -83 l185 -68 805 -1 805 -2 100 34 c55 18 106 35 113 38 7 2 14 5 17
5 3 0 33 11 67 24 35 13 99 36 143 50 44 15 87 30 95 33 8 4 18 7 23 7 11 1 9
12 -9 54 -10 20 -18 39 -19 42 0 3 -12 28 -25 55 -12 28 -44 97 -70 155 -26
58 -61 134 -77 170 -17 36 -49 106 -71 155 -50 111 -96 213 -128 282 -13 28
-24 57 -24 62 0 6 -8 11 -17 12 -10 0 -27 2 -38 4 -11 3 -49 7 -85 10 -36 4
-78 8 -95 10 -38 4 -124 14 -190 20 -27 3 -54 11 -58 18 -37 56 -134 227 -129
227 3 0 1 5 -6 12 -11 11 52 57 253 181 128 80 185 72 -536 72 -352 0 -642 -2
-644 -5z"/>
<path d="M2345 1380 c3 -5 8 -29 10 -52 2 -24 6 -52 8 -63 5 -20 13 -79 23
-165 3 -25 7 -52 9 -60 2 -8 7 -37 11 -65 3 -27 8 -57 9 -66 2 -9 6 -40 10
-69 4 -29 9 -62 11 -74 2 -12 6 -41 9 -66 3 -25 8 -56 11 -70 3 -14 8 -41 10
-60 2 -19 6 -46 8 -60 2 -14 7 -47 11 -75 10 -73 14 -97 17 -100 2 -2 39 -13
83 -24 102 -28 104 -28 143 -40 18 -5 33 -10 35 -10 1 0 9 -2 17 -5 15 -5 55
-16 225 -61 77 -20 206 -56 345 -95 19 -5 85 -23 145 -40 61 -17 133 -37 161
-46 47 -14 57 -14 115 1 35 10 71 19 79 21 28 7 85 22 195 54 61 17 120 33
132 35 12 3 34 10 48 15 14 5 25 7 25 4 0 -4 7 -1 15 6 8 7 15 10 15 7 0 -3
15 -1 33 4 17 6 39 12 47 14 8 2 15 4 15 5 0 1 7 3 15 5 8 1 67 17 130 35 133
36 124 34 170 44 19 5 40 11 45 14 6 4 16 7 24 9 33 4 147 37 154 43 4 4 10
20 12 36 12 72 15 92 20 139 4 28 8 57 10 65 3 8 7 40 10 70 3 30 8 66 10 80
17 105 26 167 31 208 2 26 9 72 14 102 5 30 12 76 15 102 5 48 9 76 26 187 5
35 8 65 7 67 -2 1 -123 -38 -268 -87 l-265 -91 -830 0 -830 -1 -100 35 c-55
20 -152 55 -215 78 -187 68 -227 79 -215 60z"/>
<path d="M5196 1352 c-2 -9 -7 -44 -11 -77 -4 -32 -8 -66 -10 -75 -1 -8 -6
-37 -9 -65 -8 -60 -16 -111 -21 -145 -8 -46 -19 -135 -19 -157 -1 -13 -3 -23
-6 -23 -3 0 -5 -12 -6 -27 0 -16 -4 -50 -8 -78 -4 -27 -9 -66 -12 -85 -3 -19
-7 -46 -9 -60 -9 -52 -18 -126 -19 -155 0 -22 4 -29 14 -26 8 2 85 24 170 47
85 24 164 46 175 48 11 3 36 10 55 16 19 6 42 13 50 15 19 4 93 24 235 65 61
17 118 33 128 35 9 3 25 7 35 10 9 2 46 12 80 21 l64 17 -24 21 c-13 12 -46
39 -73 61 -75 60 -86 69 -99 80 -6 6 -36 30 -66 55 -30 25 -61 51 -68 58 -8 7
-30 25 -50 40 -38 28 -77 59 -96 77 -6 6 -60 51 -121 101 -60 49 -147 120
-192 157 -66 54 -83 63 -87 49z"/>
<path d="M2105 1273 c-55 -46 -115 -96 -134 -111 -19 -15 -51 -41 -70 -58 -20
-16 -99 -82 -176 -145 -77 -63 -149 -122 -160 -131 -11 -9 -64 -53 -118 -97
l-98 -80 68 -20 c37 -11 102 -29 143 -40 41 -11 165 -46 275 -76 110 -31 232
-65 270 -76 39 -10 104 -28 145 -39 120 -34 112 -35 105 13 -3 23 -8 53 -10
67 -2 14 -9 63 -15 110 -6 47 -13 96 -15 110 -3 14 -7 45 -11 70 -3 25 -9 72
-14 105 -5 33 -12 83 -15 110 -3 28 -8 57 -10 65 -2 8 -7 42 -11 75 -3 33 -8
69 -10 80 -2 11 -6 38 -9 60 -4 22 -8 49 -10 60 -2 11 -4 23 -4 28 -2 15 -18
4 -116 -80z"/>
</g>
</svg>
