<svg xmlns="http://www.w3.org/2000/svg" xmlns:xlink="http://www.w3.org/1999/xlink" id="interactive_logo_animation" fill="none" version="1.1" viewBox="0 0 628 770">
    <path id="nose_left" fill="#f97316" d="m230 438-17 17.502v45.5l10 5 51-5 11-26.5z"/>
    <path id="nose_right" fill="#f97316" d="m400 438 15 17.502v45.5l-10 5-47-5-15-26.5z"/>
    <path id="structure" stroke="#f97316" stroke-linecap="round" stroke-width="13" d="m 318,763 l 74.23647,-20.52065 l 48.76353,-13.47935 m -130,34 l -75.35923,-20.76829 l -51.64077,-14.23171 m 3,1 l -123,-34 m 123,34 l -17.33635,-121 m 62.33635,22 l -62.33635,-22 m 224.33635,-164 h -158 m 75,-78 l -153,-59 m -84,20 l 62,138 m 81,38 l -81,-38 m 81,38 l -47.33635,105 m -105.66365,87 l 105.66365,-87 m -105.66365,87 l -57,-105 m 73,-301 l -73,301 m 299,-501 l -226,200 m 49,-212 l -49,212 m 226,-281 l -177,69 m 186.5,-75.6107308 l 2e-5,436.6107308 m 125.49998,291 l 123,-34 m -170,-65 h -162 m 85,-264 l 153,-59 m 72,40 l -72,-40 m 84,20 l -62,138 m -81,38 l 81,-38 m -81,38 l 47.33635,105 m 0,0 l -64.33635,22 m 170,65 l -105.66365,-87 m 0,0 l -17.33635,121 m 123,-34 l 57,-105 m -73,-301 l 73,301 m -299,-501 l 226,200 m -49,-212 l 49,212 m -226,-281 l 177,69 m -186.5,-75.6107308 v 436.6107308 m -154.5,-131 l -72,40"/>
    <path id="eye_left" fill="#f97316" d="m167 366 8.875 61 54.625-52-63.5-9Z"/>
    <path id="eye_right" fill="#f97316" d="m461 366-8.875 61-54.625-52 63.5-9Z"/>
    <path id="eyebrow_left" fill="none" stroke="#f97316" stroke-linecap="round" stroke-linejoin="round" stroke-width="13" d="m 86,347 l 72,-40 l 153,59"/>
    <path id="eyebrow_right" fill="none" stroke="#f97316" stroke-linecap="round" stroke-linejoin="round" stroke-width="13" d="m 542,347 l -72,-40 l -153,59"/>
    <path id="ear_left" fill="#f97316" d="m47 263-30.5 22 9.5 63.5 48.5-42L47 263Z"/>
    <path id="ear_right" fill="#f97316" d="m581 263 30.5 22-9.5 63.5-48.5-42L581 263Z"/>
</svg>