<svg width="600" height="742" viewBox="0 0 600 742" fill="none" xmlns="http://www.w3.org/2000/svg">
<path d="M292 0V66.5L77 255L90.5 198.5L119.269 67L292 0Z" fill="#FF8800"/>
<path d="M292 0V66.5L77 255L90.5 198.5L119.269 67L292 0Z" fill="#FF8800"/>
<path d="M151 605.5L165 705L64 677L151 605.5Z" fill="#FF8800"/>
<path d="M151 605.5L165 705L64 677L151 605.5Z" fill="#FF8800"/>
<path d="M449 605L435 704.5L536 676.5L449 605Z" fill="#FF8800"/>
<path d="M449 605L435 704.5L536 676.5L449 605Z" fill="#FF8800"/>
<path d="M483 455L405.5 491L449.5 589L548 670L600 574L540 327.5L483 455Z" fill="#FF8800"/>
<path d="M483 455L405.5 491L449.5 589L548 670L600 574L540 327.5L483 455Z" fill="#FF8800"/>
<path d="M117 455.5L194.5 491.5L150.5 589.5L52 670.5L0 574.5L60 328L117 455.5Z" fill="#FF8800"/>
<path d="M117 455.5L194.5 491.5L150.5 589.5L52 670.5L0 574.5L60 328L117 455.5Z" fill="#FF8800"/>
<path d="M209 491L164.5 589L219 608.5H379L435.5 589L391 491L344 486L329 459.5L366.5 435.5H236L271 459.5L260 486L209 491Z" fill="#FF8800"/>
<path d="M209 491L164.5 589L219 608.5H379L435.5 589L391 491L344 486L329 459.5L366.5 435.5H236L271 459.5L260 486L209 491Z" fill="#FF8800"/>
<path d="M163.5 602.5L179 708.5L300.5 742L421 709L436 603L381 621.5H216.5L163.5 602.5Z" fill="#FF8800"/>
<path d="M163.5 602.5L179 708.5L300.5 742L421 709L436 603L381 621.5H216.5L163.5 602.5Z" fill="#FF8800"/>
<path d="M292 82.5V342L143.5 285L72.5 324L64.5 307.5L72 277.5L131.5 225L292 82.5Z" fill="#FF8800"/>
<path d="M292 82.5V342L143.5 285L72.5 324L64.5 307.5L72 277.5L131.5 225L292 82.5Z" fill="#FF8800"/>
<path d="M308 356V422.5L383.5 360L447 351L438 412L383.5 360L308 422.5H386L401 440.5V479L473 445L522 336L455.5 299L308 356Z" fill="#FF8800"/>
<path d="M308 356V422.5L383.5 360L447 351L438 412L383.5 360L308 422.5H386L401 440.5V479L473 445L522 336L455.5 299L308 356Z" fill="#FF8800"/>
<path d="M292 356V422.5L216.5 360L153 351L162 412L216.5 360L292 422.5H214L199 440.5V479L127 445L78 336L144.5 299L292 356Z" fill="#FF8800"/>
<path d="M292 356V422.5L216.5 360L153 351L162 412L216.5 360L292 422.5H214L199 440.5V479L127 445L78 336L144.5 299L292 356Z" fill="#FF8800"/>
<path d="M308 83V342.5L456.5 285.5L527.5 324.5L535.5 308L528 278L468.5 225.5L308 83Z" fill="#FF8800"/>
<path d="M308 83V342.5L456.5 285.5L527.5 324.5L535.5 308L528 278L468.5 225.5L308 83Z" fill="#FF8800"/>
<path d="M308 0V66.5L523 255L509.5 198.5L480.731 67L308 0Z" fill="#FF8800"/>
<path d="M308 0V66.5L523 255L509.5 198.5L480.731 67L308 0Z" fill="#FF8800"/>
</svg>
